<svg width="1060" height="340" viewBox="0 0 1060 340" fill="none" xmlns="http://www.w3.org/2000/svg" role="img" aria-label="Harness Score">
  <title>Harness Score</title>
  <defs>
    <linearGradient id="hs-tile" x1="0" y1="0" x2="0" y2="1">
      <stop offset="0" stop-color="#14232f"/>
      <stop offset="1" stop-color="#081117"/>
    </linearGradient>
    <linearGradient id="hs-fill" x1="0" y1="0" x2="0" y2="1">
      <stop offset="0" stop-color="#3ce3a3"/>
      <stop offset="1" stop-color="#16a877"/>
    </linearGradient>
    <clipPath id="hs-clip">
      <rect x="32" y="32" width="448" height="448" rx="112"/>
    </clipPath>
  </defs>

  <!-- icon -->
  <g transform="translate(20,20) scale(0.5859)">
    <rect x="32" y="32" width="448" height="448" rx="112" fill="url(#hs-tile)"/>
    <g clip-path="url(#hs-clip)">
      <ellipse cx="256" cy="66" rx="252" ry="124" fill="#ffffff" opacity="0.045"/>
    </g>
    <rect x="33" y="33" width="446" height="446" rx="110" fill="none" stroke="#ffffff" stroke-opacity="0.07" stroke-width="2"/>
    <g fill="#1e2f3a">
      <rect x="96"  y="120" width="36" height="272" rx="18"/>
      <rect x="153" y="120" width="36" height="272" rx="18"/>
      <rect x="210" y="120" width="36" height="272" rx="18"/>
      <rect x="267" y="120" width="36" height="272" rx="18"/>
      <rect x="324" y="120" width="36" height="272" rx="18"/>
      <rect x="381" y="120" width="36" height="272" rx="18"/>
    </g>
    <g fill="url(#hs-fill)">
      <rect x="96"  y="310" width="36" height="82"  rx="18"/>
      <rect x="153" y="272" width="36" height="120" rx="18"/>
      <rect x="210" y="234" width="36" height="158" rx="18"/>
      <rect x="267" y="196" width="36" height="196" rx="18"/>
      <rect x="324" y="158" width="36" height="234" rx="18"/>
      <rect x="381" y="120" width="36" height="272" rx="18"/>
    </g>
  </g>

  <!-- wordmark -->
  <text x="348" y="190" textLength="655" lengthAdjust="spacingAndGlyphs" font-family="'Segoe UI', system-ui, -apple-system, 'Helvetica Neue', Arial, sans-serif" font-size="106" font-weight="800" letter-spacing="-2" fill="#0e1a24">harness<tspan dx="26" fill="#12946a" font-weight="600">score</tspan></text>
  <text x="352" y="248" textLength="551" lengthAdjust="spacingAndGlyphs" font-family="'Segoe UI', system-ui, -apple-system, 'Helvetica Neue', Arial, sans-serif" font-size="26" font-weight="600" letter-spacing="6" fill="#5b6b74">HARNESS MATURITY, MEASURED</text>
</svg>
